<svg xmlns="http://www.w3.org/2000/svg" enable-background="new 0 0 1000 1000" viewBox="0 0 1000 1000"><g opacity=".15"><polyline fill="none" stroke="#474747" stroke-linecap="round" stroke-linejoin="round" stroke-miterlimit="10" stroke-width="6" points="157.546 387.924 236.896 387.924 236.896 426.604 157.546 426.604"/><line x1="316.245" x2="236.896" y1="426.604" y2="426.604" fill="none" stroke="#474747" stroke-linecap="round" stroke-linejoin="round" stroke-miterlimit="10" stroke-width="6"/><line x1="236.896" x2="267.279" y1="387.924" y2="387.924" fill="none" stroke="#474747" stroke-linecap="round" stroke-linejoin="round" stroke-miterlimit="10" stroke-width="6"/><rect width="79.349" height="38.681" x="197.221" y="426.604" fill="none" stroke="#474747" stroke-linecap="round" stroke-linejoin="round" stroke-miterlimit="10" stroke-width="6"/><polyline fill="none" stroke="#474747" stroke-linecap="round" stroke-linejoin="round" stroke-miterlimit="10" stroke-width="6" points="169.887 465.471 236.896 465.471 236.896 504.152 211.221 504.152"/><rect width="79.349" height="38.681" x="236.896" y="465.471" fill="none" stroke="#474747" stroke-linecap="round" stroke-linejoin="round" stroke-miterlimit="10" stroke-width="6"/><polyline fill="none" stroke="#474747" stroke-linecap="round" stroke-linejoin="round" stroke-miterlimit="10" stroke-width="6" points="580.534 527.965 659.883 527.965 659.883 566.646 580.534 566.646"/><line x1="739.233" x2="659.883" y1="566.646" y2="566.646" fill="none" stroke="#474747" stroke-linecap="round" stroke-linejoin="round" stroke-miterlimit="10" stroke-width="6"/><line x1="659.883" x2="690.267" y1="527.965" y2="527.965" fill="none" stroke="#474747" stroke-linecap="round" stroke-linejoin="round" stroke-miterlimit="10" stroke-width="6"/><rect width="79.349" height="38.681" x="620.209" y="566.646" fill="none" stroke="#474747" stroke-linecap="round" stroke-linejoin="round" stroke-miterlimit="10" stroke-width="6"/><polyline fill="none" stroke="#474747" stroke-linecap="round" stroke-linejoin="round" stroke-miterlimit="10" stroke-width="6" points="592.875 605.512 659.883 605.512 659.883 644.193 634.209 644.193"/><polyline fill="none" stroke="#474747" stroke-linecap="round" stroke-linejoin="round" stroke-miterlimit="10" stroke-width="6" points="711.018 644.193 659.883 644.193 659.883 605.512 725.951 605.512"/><rect width="123.142" height="99.822" x="321.799" y="242.963" fill="none" stroke="#474747" stroke-linecap="round" stroke-linejoin="round" stroke-miterlimit="10" stroke-width="6"/><polyline fill="none" stroke="#474747" stroke-linecap="round" stroke-linejoin="round" stroke-miterlimit="10" stroke-width="6" points="338.784 319.669 361.346 287.002 384.68 315.918"/><polyline fill="none" stroke="#474747" stroke-linecap="round" stroke-linejoin="round" stroke-miterlimit="10" stroke-width="6" points="376.117 305.307 407.597 274.751 429.937 319.669"/><path fill="none" stroke="#474747" stroke-linecap="round" stroke-linejoin="round" stroke-miterlimit="10" stroke-width="6" d="M367.893 295.123c1.557-4.717 6.001-8.121 11.239-8.121 4.316 0 8.092 2.311 10.159 5.762M765.022 410.195H589.881c-6.466 0-11.708-5.242-11.708-11.708l0 0c0-6.466 5.242-11.708 11.708-11.708h175.141c6.466 0 11.708 5.242 11.708 11.708l0 0C776.729 404.954 771.488 410.195 765.022 410.195z"/><polygon fill="none" stroke="#474747" stroke-linecap="round" stroke-linejoin="round" stroke-miterlimit="10" stroke-width="6" points="704.82 386.78 653.537 386.78 642.87 321.341 715.486 321.341"/><rect width="92.307" height="19.002" x="633.18" y="302.339" fill="none" stroke="#474747" stroke-linecap="round" stroke-linejoin="round" stroke-miterlimit="10" stroke-width="6"/><path fill="none" stroke="#474747" stroke-linecap="round" stroke-linejoin="round" stroke-miterlimit="10" stroke-width="6" d="M691.057 302.339c-6.313 0-12.626 0-18.939 0-5.152-18.138-9.68-37.143-9.124-55.678.663-8.883 10.26-16.408 18.594-16.405l0 0c8.333-.003 17.93 7.522 18.594 16.405C700.737 265.197 696.209 284.201 691.057 302.339zM700.689 244.403l13.118-21.702c2.525-4.176 8.203-5.072 11.89-1.875l0 0c3.687 3.197 3.605 8.945-.172 12.035l-24.575 20.111"/><path fill="none" stroke="#474747" stroke-linecap="round" stroke-linejoin="round" stroke-miterlimit="10" stroke-width="6" d="
		M713.998,222.469l-6.249-19.394c-0.96-2.981,0.996-6.108,4.096-6.548h0c3.1-0.44,5.85,2.018,5.757,5.149l-0.464,15.674"/></g><rect width="301.11" height="145.343" x="390.162" y="407.385" fill="#77ba85" transform="rotate(115.989 540.705 480.08)"/><rect width="301.11" height="145.343" x="390.162" y="407.385" fill="none" stroke="#474747" stroke-linecap="round" stroke-linejoin="round" stroke-miterlimit="10" stroke-width="6" transform="rotate(115.989 540.705 480.08)"/><path fill="#f6f9ea" d="M620.269,369.902l-41.763-20.362c-7.93,16.264-27.542,23.02-43.806,15.09
		L431.718,575.854l100.659,49.077L635.36,413.708C619.096,405.778,612.34,386.166,620.269,369.902z"/><path fill="none" stroke="#474747" stroke-linecap="round" stroke-linejoin="round" stroke-miterlimit="10" stroke-width="6" d="
		M620.269,369.902l-41.763-20.362c-7.93,16.264-27.542,23.02-43.806,15.09L431.718,575.854l100.659,49.077L635.36,413.708
		C619.096,405.778,612.34,386.166,620.269,369.902z"/><rect width="111.986" height="267.753" x="484.725" y="346.18" fill="none" stroke="#474747" stroke-linecap="round" stroke-linejoin="round" stroke-miterlimit="10" stroke-width="6" transform="rotate(25.986 540.746 480.153)"/><circle cx="550.7" cy="458.956" r="34.313" fill="#77ba85"/><circle cx="550.7" cy="458.956" r="34.313" fill="none" stroke="#474747" stroke-linecap="round" stroke-linejoin="round" stroke-miterlimit="10" stroke-width="6"/><rect width="301.11" height="145.343" x="457.139" y="435.991" fill="#97cd78" transform="scale(-1) rotate(-39.347 -1422.734 1699.745)"/><rect width="301.11" height="145.343" x="457.139" y="435.991" fill="none" stroke="#474747" stroke-linecap="round" stroke-linejoin="round" stroke-miterlimit="10" stroke-width="6" transform="scale(-1) rotate(-39.347 -1422.734 1699.745)"/><path fill="#f6f9ea" d="M725.951,441.747l-29.458-35.93c-13.992,11.472-34.635,9.429-46.107-4.563
		l-181.721,148.99l71.002,86.6l181.721-148.99C709.916,473.861,711.959,453.219,725.951,441.747z"/><path fill="none" stroke="#474747" stroke-linecap="round" stroke-linejoin="round" stroke-miterlimit="10" stroke-width="6" d="
		M725.951,441.747l-29.458-35.93c-13.992,11.472-34.635,9.429-46.107-4.563l-181.721,148.99l71.002,86.6l181.721-148.99
		C709.916,473.861,711.959,453.219,725.951,441.747z"/><rect width="111.986" height="267.753" x="551.701" y="374.786" fill="none" stroke="#474747" stroke-linecap="round" stroke-linejoin="round" stroke-miterlimit="10" stroke-width="6" transform="rotate(50.653 607.705 508.667)"/><circle cx="625.57" cy="493.651" r="34.313" fill="#97cd78"/><circle cx="625.57" cy="493.651" r="34.313" fill="none" stroke="#474747" stroke-linecap="round" stroke-linejoin="round" stroke-miterlimit="10" stroke-width="6"/><path fill="#474747" stroke="#474747" stroke-linecap="round" stroke-linejoin="round" stroke-miterlimit="10" stroke-width="6" d="
		M629.416,457.724c0-17.781-6.675-34.024-17.637-46.385L445.192,547.92l92.151,112.396l92.073-75.489V457.724z" opacity=".32"/><line x1="169" x2="831" y1="748.723" y2="748.723" fill="none" stroke="#474747" stroke-linecap="round" stroke-linejoin="round" stroke-miterlimit="10" stroke-width="6" opacity=".15"/><g><path fill="#f58870" d="M559.416,748.723h-210c-33.137,0-60-26.863-60-60v-236c0-33.137,26.863-60,60-60h210
		c33.137,0,60,26.863,60,60v236C619.416,721.86,592.553,748.723,559.416,748.723z"/><path fill="#f58870" d="M559.416,748.723h-210c-33.137,0-60-26.863-60-60v-236c0-33.137,26.863-60,60-60h210
		c33.137,0,60,26.863,60,60v236C619.416,721.86,592.553,748.723,559.416,748.723z"/><path fill="#dd7868" d="M559.416,736.604h-210c-33.137,0-60-26.863-60-60v12.12c0,33.137,26.863,60,60,60
		h210c33.137,0,60-26.863,60-60v-12.12C619.416,709.741,592.553,736.604,559.416,736.604z"/><path fill="#ffa399" d="M559.416,392.723h-210c-33.137,0-60,24.682-60,55.129v12.864
		c0-30.447,26.863-55.129,60-55.129h210c33.137,0,60,24.682,60,55.129v-12.864C619.416,417.406,592.553,392.723,559.416,392.723z"/><path fill="#474747" stroke="#474747" stroke-linecap="round" stroke-linejoin="round" stroke-miterlimit="10" stroke-width="6" d="
		M489.416,539.199h-54c-9.941,0-18-8.059-18-18V410.723c0-9.941,8.059-18,18-18h72v128.476
		C507.416,531.14,499.357,539.199,489.416,539.199z" opacity=".3"/><path fill="none" stroke="#474747" stroke-linecap="round" stroke-linejoin="round" stroke-miterlimit="10" stroke-width="6" d="
		M559.416,748.723h-210c-33.137,0-60-26.863-60-60v-236c0-33.137,26.863-60,60-60h210c33.137,0,60,26.863,60,60v236
		C619.416,721.86,592.553,748.723,559.416,748.723z"/><path fill="none" stroke="#474747" stroke-dasharray="13.958 9.97" stroke-linecap="round" stroke-linejoin="round" stroke-width="4" d="
			M311.416,687.197V454.25c0-20.987,17.013-38,38-38h210c20.987,0,38,17.013,38,38v232.947c0,20.987-17.013,38-38,38h-210
			C328.429,725.197,311.416,708.184,311.416,687.197z" opacity=".46"/><path fill="#f79765" d="M481.416,528.199h-54c-9.941,0-18-8.059-18-18v-122c0-9.941,8.059-18,18-18h54
		c9.941,0,18,8.059,18,18v122C499.416,520.14,491.357,528.199,481.416,528.199z"/><path fill="#e27444" d="M481.416,519.866h-54c-9.941,0-18-8.059-18-18v8.333c0,9.941,8.059,18,18,18h54
		c9.941,0,18-8.059,18-18v-8.333C499.416,511.807,491.357,519.866,481.416,519.866z"/><path fill="#ffb797" d="M481.416,370.199h-54c-9.941,0-18,8.059-18,18V395c0-9.941,8.059-18,18-18h54
		c9.941,0,18,8.059,18,18v-6.801C499.416,378.258,491.357,370.199,481.416,370.199z"/><path fill="none" stroke="#474747" stroke-linecap="round" stroke-linejoin="round" stroke-miterlimit="10" stroke-width="6" d="
		M481.416,528.199h-54c-9.941,0-18-8.059-18-18v-122c0-9.941,8.059-18,18-18h54c9.941,0,18,8.059,18,18v122
		C499.416,520.14,491.357,528.199,481.416,528.199z"/><circle cx="457.416" cy="479.25" r="23.25" fill="#474747" stroke="#474747" stroke-linecap="round" stroke-linejoin="round" stroke-miterlimit="10" stroke-width="6" opacity=".3"/><path fill="none" stroke="#474747" stroke-dasharray="9.839 11.807" stroke-linecap="round" stroke-linejoin="round" stroke-width="4" d="
			M427.416,516.199c-3.309,0-6-2.691-6-6v-122c0-3.309,2.691-6,6-6h54c3.309,0,6,2.691,6,6v122c0,3.309-2.691,6-6,6H427.416z" opacity=".46"/><circle cx="454.416" cy="473.25" r="23.25" fill="#8f6d5d"/><circle cx="454.416" cy="473.25" r="23.25" fill="none" stroke="#474747" stroke-linecap="round" stroke-linejoin="round" stroke-miterlimit="10" stroke-width="6"/><path fill="#fffcee" d="M464.22,461.33c0.846,3.781-3.672,6.207-10.329,7.58c-6.668,1.318-12.658,1.541-13.478-1.663
			c-0.846-3.147,3.671-8.986,10.329-10.881C457.409,454.417,463.399,457.607,464.22,461.33z" opacity=".6"/></g><g><path fill="#fdb740" d="M788.31,748.723h-70.025c-4.014,0-7.267-3.254-7.267-7.267v-4.856
		c0-4.014,3.254-7.267,7.267-7.267h70.025c4.014,0,7.267,3.254,7.267,7.267v4.856C795.578,745.47,792.324,748.723,788.31,748.723z"/><path fill="#fff3c0" d="M788.31,731.333h-70.025c-4.014,0-7.267,3.254-7.267,7.267v2.833
		c0-4.014,3.254-7.267,7.267-7.267h70.025c4.014,0,7.267,3.254,7.267,7.267v-2.833C795.578,734.587,792.324,731.333,788.31,731.333z
		" opacity=".88"/><path fill="#f29e25" d="M788.31,746.534h-70.025c-4.014,0-7.267-3.254-7.267-7.267v-2.833
		c0,4.014,3.254,7.267,7.267,7.267h70.025c4.014,0,7.267-3.254,7.267-7.267v2.833C795.578,743.281,792.324,746.534,788.31,746.534z"/><path fill="none" stroke="#474747" stroke-linecap="round" stroke-linejoin="round" stroke-miterlimit="10" stroke-width="6" d="
		M788.31,748.723h-70.025c-4.014,0-7.267-3.254-7.267-7.267v-4.856c0-4.014,3.254-7.267,7.267-7.267h70.025
		c4.014,0,7.267,3.254,7.267,7.267v4.856C795.578,745.47,792.324,748.723,788.31,748.723z"/></g><g><path fill="#fdb740" d="M799.964,729.333h-70.025c-4.014,0-7.267-3.254-7.267-7.267v-4.856
		c0-4.014,3.254-7.267,7.267-7.267h70.025c4.014,0,7.267,3.254,7.267,7.267v4.856C807.231,726.08,803.977,729.333,799.964,729.333z"/><path fill="#fff3c0" d="M799.964,711.943h-70.025c-4.014,0-7.267,3.254-7.267,7.267v2.833
		c0-4.014,3.254-7.267,7.267-7.267h70.025c4.014,0,7.267,3.254,7.267,7.267v-2.833C807.231,715.197,803.977,711.943,799.964,711.943
		z" opacity=".88"/><path fill="#f29e25" d="M799.964,727.144h-70.025c-4.014,0-7.267-3.254-7.267-7.267v-2.833
		c0,4.014,3.254,7.267,7.267,7.267h70.025c4.014,0,7.267-3.254,7.267-7.267v2.833C807.231,723.891,803.977,727.144,799.964,727.144z
		"/><path fill="none" stroke="#474747" stroke-linecap="round" stroke-linejoin="round" stroke-miterlimit="10" stroke-width="6" d="
		M799.964,729.333h-70.025c-4.014,0-7.267-3.254-7.267-7.267v-4.856c0-4.014,3.254-7.267,7.267-7.267h70.025
		c4.014,0,7.267,3.254,7.267,7.267v4.856C807.231,726.08,803.977,729.333,799.964,729.333z"/></g><g><path fill="#fdb740" d="M788.31,709.943h-70.025c-4.014,0-7.267-3.254-7.267-7.267v-4.856
		c0-4.014,3.254-7.267,7.267-7.267h70.025c4.014,0,7.267,3.254,7.267,7.267v4.856C795.578,706.69,792.324,709.943,788.31,709.943z"/><path fill="#fff3c0" d="M788.31,692.553h-70.025c-4.014,0-7.267,3.254-7.267,7.267v2.833
		c0-4.014,3.254-7.267,7.267-7.267h70.025c4.014,0,7.267,3.254,7.267,7.267v-2.833C795.578,695.807,792.324,692.553,788.31,692.553z
		" opacity=".88"/><path fill="#f29e25" d="M788.31,707.754h-70.025c-4.014,0-7.267-3.254-7.267-7.267v-2.833
		c0,4.014,3.254,7.267,7.267,7.267h70.025c4.014,0,7.267-3.254,7.267-7.267v2.833C795.578,704.501,792.324,707.754,788.31,707.754z"/><path fill="none" stroke="#474747" stroke-linecap="round" stroke-linejoin="round" stroke-miterlimit="10" stroke-width="6" d="
		M788.31,709.943h-70.025c-4.014,0-7.267-3.254-7.267-7.267v-4.856c0-4.014,3.254-7.267,7.267-7.267h70.025
		c4.014,0,7.267,3.254,7.267,7.267v4.856C795.578,706.69,792.324,709.943,788.31,709.943z"/></g><g><path fill="#fdb740" d="M709.059,695.28l-47.835,51.14c-2.742,2.931-7.34,3.085-10.272,0.343l-3.546-3.317
		c-2.931-2.742-3.085-7.34-0.343-10.272l47.835-51.14c2.742-2.931,7.34-3.085,10.272-0.343l3.546,3.317
		C711.647,687.75,711.8,692.349,709.059,695.28z"/><path fill="#fff3c0" d="M696.358,683.401l-47.835,51.14c-2.742,2.931-2.588,7.53,0.343,10.272
		l2.069,1.935c-2.931-2.742-3.085-7.34-0.343-10.272l47.835-51.14c2.742-2.931,7.341-3.085,10.272-0.343l-2.069-1.935
		C703.699,680.316,699.1,680.47,696.358,683.401z" opacity=".88"/><path fill="#f29e25" d="M707.46,693.785l-47.835,51.14c-2.742,2.931-7.34,3.085-10.272,0.343l-2.069-1.935
		c2.931,2.742,7.53,2.588,10.272-0.343l47.835-51.14c2.742-2.931,2.588-7.53-0.343-10.272l2.069,1.935
		C710.048,686.255,710.202,690.854,707.46,693.785z"/><path fill="none" stroke="#474747" stroke-linecap="round" stroke-linejoin="round" stroke-miterlimit="10" stroke-width="6" d="
		M709.059,695.28l-47.835,51.14c-2.742,2.931-7.34,3.085-10.272,0.343l-3.546-3.317c-2.931-2.742-3.085-7.34-0.343-10.272
		l47.835-51.14c2.742-2.931,7.34-3.085,10.272-0.343l3.546,3.317C711.647,687.75,711.8,692.349,709.059,695.28z"/></g></svg>