<svg xmlns="http://www.w3.org/2000/svg" viewBox="0 0 128 128"><g data-name="katman 2"><path fill="#f2f5f9" d="M94,24v76a8,8,0,0,1-8,8H36a8,8,0,0,0,8-8V24a8,8,0,0,0-8-8H86A8,8,0,0,1,94,24Z"/><path fill="#183d56" d="M94,74.37V100a8,8,0,0,1-8,8H79.56A22,22,0,0,1,94,74.37Z" opacity=".1"/><path fill="#183d56" d="M94,94v6a8,8,0,0,1-8,8H36a8,8,0,0,0,7.75-6H86A8,8,0,0,0,94,94Z" opacity=".1"/><path fill="#c7cfef" d="M44 24v8H28V24a8 8 0 0 1 16 0zM44 92v8a8 8 0 0 1-16 0V92z"/><path fill="none" stroke="#183d56" stroke-linecap="round" stroke-linejoin="round" stroke-width="4" d="M94,24v76a8,8,0,0,1-8,8H36a8,8,0,0,0,8-8V24a8,8,0,0,0-8-8H86A8,8,0,0,1,94,24Z"/><path fill="none" stroke="#183d56" stroke-linecap="round" stroke-linejoin="round" stroke-width="4" d="M44 32H28V24a8 8 0 0 1 8-8M36 108a8 8 0 0 1-8-8V92H44"/><polygon fill="#f2f5f9" points="12 98 20 98 16 108 12 98"/><rect width="8" height="24" x="12" y="74" fill="#f2f5f9" transform="rotate(180 16 86)"/><path fill="#f2f5f9" d="M12,60h8a0,0,0,0,1,0,0v6a2,2,0,0,1-2,2H14a2,2,0,0,1-2-2V60A0,0,0,0,1,12,60Z" transform="rotate(180 16 64)"/><rect width="6" height="6" x="13" y="68" fill="#f2f5f9" transform="rotate(180 16 71)"/><polygon fill="none" stroke="#183d56" stroke-linecap="round" stroke-linejoin="round" stroke-width="4" points="12 98 20 98 16 108 12 98"/><rect width="8" height="24" x="12" y="74" fill="none" stroke="#183d56" stroke-linecap="round" stroke-linejoin="round" stroke-width="4" transform="rotate(180 16 86)"/><path fill="none" stroke="#183d56" stroke-linecap="round" stroke-linejoin="round" stroke-width="4" d="M12,60h8a0,0,0,0,1,0,0v6a2,2,0,0,1-2,2H14a2,2,0,0,1-2-2V60A0,0,0,0,1,12,60Z" transform="rotate(180 16 64)"/><rect width="6" height="6" x="13" y="68" fill="none" stroke="#183d56" stroke-linecap="round" stroke-linejoin="round" stroke-width="4" transform="rotate(180 16 71)"/><line x1="65" x2="73" y1="30" y2="30" fill="none" stroke="#183d56" stroke-linecap="round" stroke-linejoin="round" stroke-width="4"/><line x1="55" x2="69" y1="50" y2="50" fill="none" stroke="#183d56" stroke-linecap="round" stroke-linejoin="round" stroke-width="4"/><line x1="77" x2="83" y1="50" y2="50" fill="none" stroke="#183d56" stroke-linecap="round" stroke-linejoin="round" stroke-width="4"/><line x1="83" x2="69" y1="60" y2="60" fill="none" stroke="#183d56" stroke-linecap="round" stroke-linejoin="round" stroke-width="4"/><line x1="61" x2="55" y1="60" y2="60" fill="none" stroke="#183d56" stroke-linecap="round" stroke-linejoin="round" stroke-width="4"/><line x1="83" x2="55" y1="40" y2="40" fill="none" stroke="#183d56" stroke-linecap="round" stroke-linejoin="round" stroke-width="4"/><line x1="73" x2="55" y1="70" y2="70" fill="none" stroke="#183d56" stroke-linecap="round" stroke-linejoin="round" stroke-width="4"/><line x1="36" x2="36" y1="57" y2="67" fill="none" stroke="#183d56" stroke-linecap="round" stroke-linejoin="round" stroke-width="4"/><ellipse cx="98.01" cy="96" fill="#ffd79c" rx="16.01" ry="16"/><path fill="#183d56" d="M104,110.86A15.84,15.84,0,0,1,98,112a16,16,0,1,1,0-32A15.84,15.84,0,0,1,104,81.14a15,15,0,0,0,0,29.72Z" opacity=".1"/><ellipse cx="98.01" cy="96" fill="none" stroke="#183d56" stroke-linecap="round" stroke-linejoin="round" stroke-width="4" rx="16.01" ry="16"/><path fill="#f2f5f9" stroke="#183d56" stroke-linecap="round" stroke-linejoin="round" stroke-width="4" d="M106,96a8.33,8.33,0,0,1-16,0,8.33,8.33,0,0,1,16,0Zm-8,0h0"/><rect width="128" height="128" fill="none"/><path fill="#183d56" d="M44 24v8H36V24a8 8 0 0 0-4-6.92A7.85 7.85 0 0 1 36 16 8 8 0 0 1 44 24zM44 100V92H36v8a8 8 0 0 1-4 6.92A7.85 7.85 0 0 0 36 108 8 8 0 0 0 44 100z" opacity=".1"/><rect width="20" height="20" x="54" y="80" fill="#183d56" opacity=".1" rx="6" ry="6"/><rect width="16" height="16" x="58" y="80" fill="#f2f5f9" rx="4" ry="4"/><path fill="#183d56" d="M74,86v6a4,4,0,0,1-4,4H62a4,4,0,0,1-4-4V86a4,4,0,0,0,4,4h8A4,4,0,0,0,74,86Z" opacity=".1"/><rect width="16" height="16" x="58" y="80" fill="none" stroke="#183d56" stroke-linecap="round" stroke-linejoin="round" stroke-width="4" rx="4" ry="4"/><polyline fill="none" stroke="#183d56" stroke-linecap="round" stroke-linejoin="round" stroke-width="4" points="63 86 67 90 77 80"/><line x1="36" x2="24" y1="108" y2="108" fill="none" stroke="#183d56" stroke-linecap="round" stroke-linejoin="round" stroke-width="4"/><line x1="16" x2="11" y1="108" y2="108" fill="none" stroke="#183d56" stroke-linecap="round" stroke-linejoin="round" stroke-width="4"/></g></svg>