<svg xmlns="http://www.w3.org/2000/svg" data-name="Layer 1" viewBox="0 0 68 68"><path d="M64.88 39.06L43.43 28.84a2 2 0 0 0-2.68.92l-.32.65-3.16-1.54a55.74 55.74 0 0 1 3.19-5.37l1.17.57a1.68 1.68 0 0 0 .78.18 1.79 1.79 0 0 0 1.61-1l1.32-2.69a1.8 1.8 0 0 0-.83-2.4h0L27.64 9.93a1.77 1.77 0 0 0-2.39.82l-1.32 2.69a1.8 1.8 0 0 0 .83 2.4l1.29.63a49.28 49.28 0 0 1-6.56 13.59l-1.35-.66a1.79 1.79 0 0 0-2.4.82l-1.31 2.69a1.81 1.81 0 0 0 .82 2.4l16.88 8.23a1.68 1.68 0 0 0 .78.18 1.8 1.8 0 0 0 1.61-1L35.84 40a1.86 1.86 0 0 0 .08-1.37 1.81 1.81 0 0 0-.91-1h0L33.78 37A56.65 56.65 0 0 1 36.23 31l.14-.3 3.19 1.55L39 33.39a2 2 0 0 0 .93 2.68L61.35 46.29a1.94 1.94 0 0 0 .87.2A2 2 0 0 0 64 45.37l1.78-3.63A2 2 0 0 0 64.88 39.06zM27 11.82l16.5 8.05-1.13 2.31-16.5-8zm5.87 29.83l-16.5-8 1.13-2.31L34 39.34zM32 36.15L21.3 30.94a51.31 51.31 0 0 0 6.57-13.58l10.78 5.26a58.11 58.11 0 0 0-3.16 5.32c-.35.67-.71 1.4-1.07 2.16A59.94 59.94 0 0 0 32 36.15zm30.26 8.34L40.78 34.27l1.78-3.63L64 40.86zM44.47 56.58V52.44a1.68 1.68 0 0 0-1.68-1.68H41V49.49a3.33 3.33 0 0 0-3.33-3.32H8.82a3.33 3.33 0 0 0-3.33 3.32v1.27H3.68A1.68 1.68 0 0 0 2 52.44v4.14a1.68 1.68 0 0 0 1.68 1.67H42.79A1.68 1.68 0 0 0 44.47 56.58zm-37-7.09a1.33 1.33 0 0 1 1.33-1.32H37.65A1.33 1.33 0 0 1 39 49.49v1.27H7.49zm35 6.76H4V52.76H42.47z"/></svg>