<svg xmlns="http://www.w3.org/2000/svg" enable-background="new 0 0 64 64" viewBox="0 0 64 64"><path fill="#2b4a54" d="M20.44,36.12c0.85,0,1.71-0.01,2.54-0.04l0.26-0.01l-0.07-0.25c-0.47-1.77-0.71-3.62-0.71-5.5
		c0-1.26,0.11-2.49,0.31-3.66l0.04-0.23l-0.24-0.01c-0.67-0.02-1.38-0.03-2.14-0.03C8.74,26.39,0,28.96,0,31.26
		C0,33.55,8.74,36.12,20.44,36.12z"/><path fill="#2b4a54" d="M7.09,43.59c3.78,0.83,8.52,1.29,13.35,1.29c2.37,0,4.71-0.11,6.96-0.33l0.39-0.04l-0.25-0.3
		c-1.62-1.91-2.87-4.05-3.73-6.38l-0.05-0.14l-0.15,0.01c-1.03,0.04-2.1,0.06-3.17,0.06c-8.82,0-16.72-1.45-20.12-3.69L0,33.86v6.17
		C0,40.77,1.49,42.36,7.09,43.59z"/><path fill="#2b4a54" d="M29.3,46.07L29.23,46l-0.1,0.01c-2.7,0.33-5.62,0.5-8.69,0.5c-4.98,0-9.84-0.47-13.7-1.33
		c-1.94-0.42-4.62-1.17-6.42-2.33L0,42.65v6.13c0,2.03,7.78,4.85,20.44,4.85c6.92,0,13.14-0.86,17.07-2.36l0.55-0.21l-0.56-0.18
		C34.46,49.93,31.63,48.27,29.3,46.07z"/><path fill="#2b4a54" d="M44.05,10.36c-11,0-19.95,8.95-19.95,19.96c0,11,8.95,19.95,19.95,19.95c11,0,19.95-8.95,19.95-19.95
		C64,19.32,55.05,10.36,44.05,10.36z M44.05,45.5c-8.37,0-15.18-6.81-15.18-15.18c0-8.37,6.81-15.18,15.18-15.18
		s15.18,6.81,15.18,15.18C59.23,38.69,52.42,45.5,44.05,45.5z"/><path fill="#2b4a54" d="M47.99,30.14c-0.3-0.3-0.67-0.56-1.09-0.79c-0.38-0.2-0.78-0.38-1.27-0.58c-0.35-0.13-0.71-0.27-1.06-0.39
		c-0.32-0.12-0.63-0.26-0.95-0.43c-0.24-0.12-0.43-0.28-0.57-0.47c-0.12-0.16-0.18-0.35-0.18-0.58c0-0.16,0.03-0.3,0.1-0.44
		c0.04-0.1,0.11-0.19,0.22-0.28c0.13-0.1,0.3-0.18,0.5-0.23c0.22-0.06,0.5-0.09,0.84-0.09c0.39,0,0.72,0.04,1,0.12
		c0.32,0.09,0.6,0.18,0.84,0.28c0.25,0.11,0.46,0.2,0.63,0.28c0.25,0.13,0.44,0.19,0.6,0.19c0.13,0,0.26-0.04,0.35-0.11
		c0.12-0.08,0.22-0.22,0.25-0.34c0.05-0.12,0.07-0.27,0.09-0.44c0.01-0.15,0.02-0.34,0.02-0.57c0-0.18-0.01-0.33-0.02-0.43
		c0-0.15-0.01-0.29-0.04-0.4c-0.03-0.14-0.06-0.24-0.12-0.34c-0.07-0.11-0.16-0.21-0.21-0.25c-0.1-0.1-0.25-0.2-0.44-0.29
		c-0.17-0.07-0.35-0.15-0.56-0.23c-0.2-0.06-0.42-0.13-0.65-0.18c-0.09-0.02-0.18-0.04-0.28-0.06l0.17-1.67
		c0-0.11-0.02-0.22-0.05-0.34c-0.05-0.16-0.17-0.29-0.39-0.4c-0.13-0.05-0.27-0.08-0.42-0.1c-0.16-0.02-0.36-0.04-0.6-0.04
		c-0.21,0-0.39,0-0.49,0.02c-0.17,0.02-0.31,0.05-0.39,0.09c-0.17,0.07-0.26,0.18-0.33,0.26c-0.04,0.06-0.11,0.19-0.11,0.32
		l-0.18,1.82c-0.54,0.08-1.02,0.22-1.43,0.39c-0.52,0.21-0.98,0.51-1.37,0.88c-0.37,0.37-0.66,0.8-0.85,1.27
		c-0.2,0.48-0.3,1.01-0.3,1.61c0,0.65,0.1,1.21,0.29,1.65c0.19,0.46,0.45,0.86,0.78,1.19c0.31,0.31,0.67,0.58,1.08,0.81
		c0.38,0.21,0.77,0.39,1.16,0.53c0.39,0.16,0.77,0.3,1.13,0.43c0.33,0.12,0.64,0.26,0.93,0.43c0.24,0.13,0.42,0.28,0.57,0.47
		c0.12,0.15,0.17,0.34,0.17,0.59c0,0.39-0.14,0.68-0.45,0.91c-0.33,0.25-0.86,0.38-1.6,0.38c-0.51,0-0.93-0.05-1.28-0.15
		c-0.34-0.09-0.65-0.2-0.94-0.33c-0.26-0.12-0.47-0.23-0.64-0.33c-0.33-0.2-0.51-0.22-0.61-0.22c-0.13,0-0.26,0.03-0.4,0.11
		c-0.15,0.09-0.23,0.23-0.3,0.38c-0.04,0.12-0.07,0.26-0.1,0.47c-0.01,0.16-0.02,0.38-0.02,0.62c0,0.33,0.02,0.6,0.06,0.81
		c0.06,0.24,0.15,0.42,0.28,0.55c0.1,0.1,0.24,0.2,0.47,0.33c0.16,0.09,0.38,0.18,0.61,0.27c0.23,0.09,0.49,0.16,0.78,0.24
		c0.17,0.04,0.34,0.07,0.51,0.11l-0.17,1.71c-0.04,0.15-0.03,0.3,0.04,0.5c0.07,0.13,0.18,0.24,0.33,0.34
		c0.13,0.06,0.27,0.1,0.45,0.13c0.15,0.02,0.35,0.04,0.61,0.04c0.2,0,0.38-0.01,0.51-0.04c0.17-0.03,0.27-0.06,0.31-0.08
		c0.17-0.05,0.32-0.16,0.35-0.25c0.08-0.11,0.11-0.23,0.13-0.35l0.19-1.95c0.59-0.08,1.14-0.21,1.63-0.39
		c0.59-0.23,1.11-0.53,1.56-0.93c0.44-0.4,0.79-0.87,1.02-1.41c0.24-0.52,0.35-1.13,0.35-1.81c0-0.65-0.1-1.19-0.3-1.64
		C48.58,30.86,48.31,30.47,47.99,30.14z"/></svg>