<svg xmlns="http://www.w3.org/2000/svg" data-name="Layer 1" viewBox="0 0 512 512"><path d="M358.112 413.625l-7.042 15.851a7.491 7.491 0 0 1-11.7 2.659l-13.185-11.221-2.364 2.011 22.215 54.29 6.127-12.561a11.934 11.934 0 0 1 14.334-6.093l14.367 4.653-20.143-48.906zM385.092 355.849h0l11.337-8.514L385.1 338.85a7.457 7.457 0 0 1-2.154-9.451l6.511-12.533-13.861-2.7a7.461 7.461 0 0 1-6.054-7.565l.443-14.172-13.681 3.583a7.459 7.459 0 0 1-8.735-4.192l-5.758-12.959-10.776 9.17a7.456 7.456 0 0 1-9.717-.01l-10.764-9.161L304.8 291.811a7.456 7.456 0 0 1-8.739 4.2l-13.682-3.584.442 14.154a7.453 7.453 0 0 1-6.059 7.584l-13.856 2.7 6.515 12.539a7.47 7.47 0 0 1-2.162 9.449l-11.323 8.481 11.337 8.514a7.46 7.46 0 0 1 2.141 9.45l-6.508 12.529 13.862 2.7a7.46 7.46 0 0 1 6.052 7.594l-.441 14.143 13.68-3.583a7.6 7.6 0 0 1 1.918-.248 7.454 7.454 0 0 1 6.826 4.459l5.749 12.941 10.777-9.171a7.459 7.459 0 0 1 9.694-.009l10.786 9.18 5.752-12.948a7.473 7.473 0 0 1 8.746-4.2l13.676 3.582-.443-14.153a7.47 7.47 0 0 1 6.046-7.582l13.869-2.7-6.514-12.541A7.457 7.457 0 0 1 385.092 355.849zm-58.908 36.087a44.589 44.589 0 1 1 44.588-44.589A44.64 44.64 0 0 1 326.184 391.936z"/><path d="M326.184,316.758a30.589,30.589,0,1,0,30.588,30.589A30.623,30.623,0,0,0,326.184,316.758Z"/><path d="M246.47 315.312a7.12 7.12 0 0 1-.094-6.519 7.467 7.467 0 0 1 5.312-4.046l16.969-3.283-.54-17.318a7.483 7.483 0 0 1 9.389-7.466l16.749 4.388 7.042-15.851a7.488 7.488 0 0 1 11.69-2.667l13.2 11.229 13.191-11.224a7.486 7.486 0 0 1 11.7 2.671l7.038 15.842 16.758-4.39a7.485 7.485 0 0 1 9.382 7.463l-.542 17.329 16.974 3.289A7.482 7.482 0 0 1 406 308.824a7.062 7.062 0 0 1-.1 6.491L401.759 323H461V33H51V323H250.608zM89 109H262a7 7 0 0 1 0 14H89a7 7 0 0 1 0-14zm0 42H422a7 7 0 0 1 0 14H89a7 7 0 0 1 0-14zm0 43H422a7 7 0 0 1 0 14H89a7 7 0 0 1 0-14zm-7 49a7 7 0 0 1 7-7H422a7 7 0 0 1 0 14H89A7 7 0 0 1 82 243zM300.205 466.118l6.124 12.555 12.575-30.8-6.314-15.433a7.471 7.471 0 0 1-11.289-2.957l-7.046-15.86-1.933.506L271.5 464.678l14.366-4.654A11.934 11.934 0 0 1 300.205 466.118z"/></svg>