<svg xmlns="http://www.w3.org/2000/svg" enable-background="new 0 0 32 32" viewBox="0 0 32 32"><path fill="#e2e2e2" d="M26,28v-1v-0.995L25.997,26V4c0-1.105-0.895-2-2-2h-20l2,2.065V28c0,1.105,0.895,2,2,2h20l0,0   C26.894,29.998,26,29.104,26,28z"/><path fill="#cfcfce" d="M30,27.169v-1.167h-4V27v1c0,1.105,0.895,2,2,2s2-0.895,2-2"/><path fill="#e2e2e2" d="M4,2.003c-1.105,0-2,0.895-2,2h4h2h14c0-1.105,0.895-2,2-2H4z"/><path fill="#1a4875" d="M8 30.5c-1.378 0-2.5-1.121-2.5-2.5 0-.276.224-.5.5-.5s.5.224.5.5c0 .827.673 1.5 1.5 1.5.276 0 .5.224.5.5S8.276 30.5 8 30.5zM28 30.5c-1.379 0-2.5-1.121-2.5-2.5 0-.276.224-.5.5-.5s.5.224.5.5c0 .827.673 1.5 1.5 1.5.276 0 .5.224.5.5S28.276 30.5 28 30.5z"/><path fill="#1a4875" d="M28 30.5c-.276 0-.5-.224-.5-.5s.224-.5.5-.5c.827 0 1.5-.673 1.5-1.5 0-.276.224-.5.5-.5s.5.224.5.5C30.5 29.379 29.379 30.5 28 30.5zM8 30.5c-1.378 0-2.5-1.121-2.5-2.5 0-.276.224-.5.5-.5s.5.224.5.5c0 .827.673 1.5 1.5 1.5.276 0 .5.224.5.5S8.276 30.5 8 30.5z"/><path fill="#1a4875" d="M30,25.503h-3.503V4.017c0-0.005,0.003-0.009,0.003-0.015c0-0.69-0.281-1.316-0.734-1.768  C25.313,1.781,24.687,1.5,23.997,1.5h-20c-0.011,0-0.021,0.006-0.032,0.006C2.604,1.525,1.5,2.636,1.5,4.003  c0,0.276,0.224,0.5,0.5,0.5h3.498V28c0,1.379,1.122,2.5,2.5,2.5h20l0.001,0c0.001,0,0.001,0,0.002,0  c1.263,0,2.299-0.944,2.466-2.161c0.019-0.053,0.034-0.109,0.034-0.17v-2.166C30.5,25.727,30.276,25.503,30,25.503z M4,2.503  c0.005,0,0.009-0.003,0.015-0.003h17.999c-0.222,0.293-0.388,0.63-0.464,1.003H6H2.585C2.792,2.921,3.348,2.503,4,2.503z M6.498,28  V4.503H22c0.276,0,0.5-0.224,0.5-0.5c0-0.827,0.673-1.5,1.5-1.5c0.413,0,0.787,0.168,1.059,0.438  C25.329,3.213,25.497,3.587,25.497,4v22c0,0.005,0.003,0.009,0.003,0.015V28c0,0.565,0.195,1.081,0.512,1.5H7.998  C7.17,29.5,6.498,28.827,6.498,28z M28,29.5c-0.827,0-1.5-0.673-1.5-1.5v-1.497h3V28C29.5,28.827,28.827,29.5,28,29.5z"/></svg>