<svg viewBox="298 214.6481 380 135.7038" width="5000" height="1785.5763157894735" xmlns="http://www.w3.org/2000/svg" xmlns:xlink="http://www.w3.org/1999/xlink" preserveAspectRatio="none"><defs></defs><style>.aD6z1nYkhcolor {fill:#270949;fill-opacity:1;}.aD6z1nYkhstrokeColor-str {stroke:#FEB7C7;stroke-opacity:1;}</style><g opacity="1" transform="rotate(0 298 214.6481)">
<svg width="380" height="135.7038" x="298" y="214.6481" version="1.1" preserveAspectRatio="none" viewBox="3.28 -29.68 104.84 37.44">
  <g transform="matrix(1 0 0 1 0 0)" class="aD6z1nYkhcolor"><path id="id-D6z1nYkh5" d="M15.12-21.60Q18.24-21.60 20.70-20.24Q23.16-18.88 24.56-16.40Q25.96-13.92 25.96-10.68L25.96-10.68Q25.96-7.44 24.56-4.94Q23.16-2.44 20.70-1.08Q18.24 0.28 15.12 0.28L15.12 0.28Q10.80 0.28 8.28-2.60L8.28-2.60L8.28 7.76L3.28 7.76L3.28-21.36L8.04-21.36L8.04-18.56Q9.28-20.08 11.10-20.84Q12.92-21.60 15.12-21.60L15.12-21.60ZM14.56-4Q17.32-4 19.10-5.84Q20.88-7.68 20.88-10.68L20.88-10.68Q20.88-13.68 19.10-15.52Q17.32-17.36 14.56-17.36L14.56-17.36Q12.76-17.36 11.32-16.54Q9.88-15.72 9.04-14.20Q8.20-12.68 8.20-10.68L8.20-10.68Q8.20-8.68 9.04-7.16Q9.88-5.64 11.32-4.82Q12.76-4 14.56-4L14.56-4Z M40.32 0.28Q37.08 0.28 34.48-1.12Q31.88-2.52 30.42-5.02Q28.96-7.52 28.96-10.68L28.96-10.68Q28.96-13.84 30.42-16.32Q31.88-18.80 34.48-20.20Q37.08-21.60 40.32-21.60L40.32-21.60Q43.60-21.60 46.20-20.20Q48.80-18.80 50.26-16.32Q51.72-13.84 51.72-10.68L51.72-10.68Q51.72-7.52 50.26-5.02Q48.80-2.52 46.20-1.12Q43.60 0.28 40.32 0.28L40.32 0.28ZM40.32-4Q43.08-4 44.88-5.84Q46.68-7.68 46.68-10.68L46.68-10.68Q46.68-13.68 44.88-15.52Q43.08-17.36 40.32-17.36L40.32-17.36Q37.56-17.36 35.78-15.52Q34-13.68 34-10.68L34-10.68Q34-7.68 35.78-5.84Q37.56-4 40.32-4L40.32-4Z M66.12 0.28Q62.88 0.28 60.28-1.12Q57.68-2.52 56.22-5.02Q54.76-7.52 54.76-10.68L54.76-10.68Q54.76-13.84 56.22-16.32Q57.68-18.80 60.28-20.20Q62.88-21.60 66.12-21.60L66.12-21.60Q69.40-21.60 72-20.20Q74.60-18.80 76.06-16.32Q77.52-13.84 77.52-10.68L77.52-10.68Q77.52-7.52 76.06-5.02Q74.60-2.52 72-1.12Q69.40 0.28 66.12 0.28L66.12 0.28ZM66.12-4Q68.88-4 70.68-5.84Q72.48-7.68 72.48-10.68L72.48-10.68Q72.48-13.68 70.68-15.52Q68.88-17.36 66.12-17.36L66.12-17.36Q63.36-17.36 61.58-15.52Q59.80-13.68 59.80-10.68L59.80-10.68Q59.80-7.68 61.58-5.84Q63.36-4 66.12-4L66.12-4Z M89.36 0.28Q86.04 0.28 84.18-1.54Q82.32-3.36 82.32-6.68L82.32-6.68L82.32-29.68L87.32-29.68L87.32-7.04Q87.32-3.84 90.32-3.84L90.32-3.84Q91.32-3.84 92.12-4.24L92.12-4.24L92.36-0.24Q90.96 0.28 89.36 0.28L89.36 0.28Z M100.52-18.24Q102.68-21.60 108.12-21.60L108.12-21.60L108.12-16.84Q107.48-16.96 106.96-16.96L106.96-16.96Q104.04-16.96 102.40-15.26Q100.76-13.56 100.76-10.36L100.76-10.36L100.76 0L95.76 0L95.76-21.36L100.52-21.36L100.52-18.24Z"/></g>
</svg>
</g></svg>