<svg width="238" height="326" viewBox="0 0 238 326" fill="none" xmlns="http://www.w3.org/2000/svg">
<path d="M72.874 325.22H66L93.859 200L107.893 203.778L72.874 325.22Z" fill="#270949"/>
<path d="M165.891 325.22H172.764L144.906 200L130.872 203.778L165.891 325.22Z" fill="#270949"/>
<path d="M156.65 209.769H82.036C80.774 209.769 79.751 210.792 79.751 212.054V218.293C79.751 219.555 80.774 220.578 82.036 220.578H156.65C157.912 220.578 158.935 219.555 158.935 218.293V212.054C158.935 210.792 157.912 209.769 156.65 209.769Z" fill="#270949"/>
<path d="M2.949 0.5H234.724C236.077 0.5 237.173 1.59645 237.173 2.949V196.779C237.173 198.132 236.077 199.228 234.724 199.228H2.949C1.59645 199.228 0.5 198.132 0.5 196.779V2.949C0.5 1.59645 1.59645 0.5 2.949 0.5Z" fill="white" stroke="#270949"/>
<path d="M139.296 38.9168L139.259 38.4182L139.296 38.9168L158.986 37.4691C159.061 37.4636 159.137 37.4729 159.208 37.4966C159.28 37.5202 159.346 37.5577 159.403 37.6069C159.46 37.6562 159.507 37.7161 159.541 37.7834C159.574 37.8507 159.595 37.924 159.6 37.9991C159.606 38.0742 159.596 38.1497 159.573 38.2213C159.549 38.2928 159.512 38.359 159.462 38.416C159.413 38.473 159.353 38.5198 159.286 38.5536C159.219 38.5875 159.145 38.6077 159.07 38.6132L159.107 39.1118L159.07 38.6132L139.38 40.061L139.377 40.0611C139.364 40.0622 139.35 40.0627 139.337 40.0628C139.189 40.0626 139.046 40.0048 138.939 39.9018C138.833 39.7987 138.77 39.6581 138.764 39.5098C138.759 39.3614 138.811 39.2167 138.911 39.1061C139.01 38.9956 139.148 38.9277 139.296 38.9168ZM159.028 45.5779H139.338C139.186 45.5779 139.04 45.5174 138.932 45.4098C138.824 45.3022 138.764 45.1562 138.764 45.004C138.764 44.8518 138.824 44.7058 138.932 44.5982C139.04 44.4906 139.186 44.4301 139.338 44.4301H159.028C159.18 44.4301 159.326 44.4906 159.434 44.5982C159.542 44.7058 159.602 44.8518 159.602 45.004C159.602 45.1562 159.542 45.3022 159.434 45.4098C159.326 45.5174 159.18 45.5779 159.028 45.5779ZM159.028 52.5402H139.338C139.186 52.5402 139.04 52.4798 138.932 52.3722C138.824 52.2645 138.764 52.1186 138.764 51.9664C138.764 51.8142 138.824 51.6682 138.932 51.5606C139.04 51.453 139.186 51.3925 139.338 51.3925H159.028C159.18 51.3925 159.326 51.453 159.434 51.5606C159.542 51.6682 159.602 51.8142 159.602 51.9664C159.602 52.1186 159.542 52.2646 159.434 52.3722C159.326 52.4798 159.18 52.5402 159.028 52.5402ZM159.028 57.2195H139.338C139.186 57.2195 139.04 57.159 138.932 57.0514C138.824 56.9438 138.764 56.7978 138.764 56.6456C138.764 56.4934 138.824 56.3475 138.932 56.2399C139.04 56.1322 139.186 56.0718 139.338 56.0718H159.028C159.18 56.0718 159.326 56.1322 159.434 56.2399C159.542 56.3475 159.602 56.4934 159.602 56.6456C159.602 56.7979 159.542 56.9438 159.434 57.0514C159.326 57.159 159.18 57.2195 159.028 57.2195ZM45.9914 172.867C45.8392 172.867 45.6932 172.807 45.5856 172.699C45.478 172.591 45.4175 172.445 45.4175 172.293V38.0412C45.4175 37.889 45.4779 37.743 45.5856 37.6354C45.6932 37.5277 45.8391 37.4673 45.9913 37.4673C46.1436 37.4673 46.2895 37.5278 46.3971 37.6354C46.5048 37.743 46.5652 37.889 46.5652 38.0412V172.293C46.5652 172.445 46.5047 172.591 46.3971 172.699C46.2895 172.807 46.1435 172.867 45.9914 172.867Z" fill="#270949" stroke="#270949"/>
<mask id="path-6-inside-1" fill="white">
<path d="M214.965 150.748H22.7077C22.4228 150.748 22.1497 150.635 21.9483 150.434C21.7469 150.232 21.6338 149.959 21.6338 149.675C21.6338 149.39 21.7469 149.117 21.9483 148.915C22.1497 148.714 22.4228 148.601 22.7077 148.601H214.965C215.25 148.601 215.523 148.714 215.724 148.915C215.926 149.117 216.039 149.39 216.039 149.675C216.039 149.959 215.926 150.232 215.724 150.434C215.523 150.635 215.25 150.748 214.965 150.748ZM55.9693 137.693C55.7752 137.692 55.5847 137.64 55.4182 137.54C55.2517 137.44 55.1154 137.297 55.0237 137.126C54.9321 136.955 54.8885 136.762 54.8977 136.568C54.9068 136.374 54.9684 136.186 55.0758 136.025L74.3682 106.984C74.4747 106.828 74.6199 106.701 74.7896 106.618C74.9593 106.534 75.1478 106.496 75.3367 106.507C75.526 106.52 75.7084 106.583 75.8654 106.689C76.0225 106.796 76.1485 106.942 76.2307 107.113L85.9259 127.279L112.221 74.7275C112.317 74.5317 112.47 74.37 112.661 74.2647C112.852 74.1594 113.07 74.1156 113.287 74.1392C113.503 74.1605 113.708 74.2468 113.874 74.3869C114.04 74.5269 114.16 74.7141 114.217 74.9236L123.508 108.8L131.539 94.602C131.638 94.4281 131.782 94.2851 131.958 94.1891C132.133 94.093 132.331 94.0477 132.531 94.0582C132.73 94.0687 132.923 94.1347 133.087 94.2486C133.251 94.3625 133.38 94.52 133.459 94.7032L144.35 119.807L152.085 98.09C152.153 97.8997 152.273 97.7323 152.431 97.6072C152.59 97.482 152.781 97.4042 152.981 97.3826C153.182 97.3594 153.386 97.394 153.568 97.4826C153.75 97.5711 153.902 97.7098 154.008 97.8823L161.644 110.144L188.725 56.164C188.819 55.9767 188.966 55.8209 189.147 55.7159C189.328 55.6109 189.536 55.5612 189.746 55.573C189.955 55.5848 190.156 55.6575 190.324 55.7821C190.493 55.9068 190.621 56.078 190.693 56.2746L195.853 70.301L214.017 36.2413C214.084 36.1168 214.174 36.0067 214.283 35.9171C214.392 35.8276 214.517 35.7604 214.652 35.7193C214.787 35.6783 214.929 35.6642 215.069 35.6779C215.21 35.6917 215.346 35.7329 215.47 35.7993C215.595 35.8656 215.705 35.9559 215.795 36.0648C215.884 36.1738 215.951 36.2993 215.992 36.4342C216.033 36.5691 216.047 36.7108 216.034 36.8512C216.02 36.9916 215.979 37.1278 215.912 37.2523L196.62 73.4266C196.522 73.6094 196.374 73.7601 196.193 73.8605C196.012 73.9608 195.805 74.0067 195.599 73.9924C195.392 73.9782 195.194 73.9045 195.028 73.7802C194.862 73.6559 194.736 73.4863 194.665 73.2919L189.533 59.3431L162.705 112.818C162.619 112.989 162.49 113.134 162.33 113.238C162.17 113.342 161.985 113.401 161.794 113.41C161.604 113.416 161.416 113.373 161.247 113.284C161.079 113.196 160.936 113.065 160.834 112.905L153.362 100.907L145.46 123.092C145.387 123.295 145.256 123.472 145.082 123.599C144.908 123.726 144.699 123.798 144.484 123.805C144.269 123.812 144.056 123.755 143.874 123.639C143.692 123.524 143.549 123.357 143.463 123.159L132.347 97.5362L124.095 112.123C123.991 112.308 123.833 112.458 123.643 112.554C123.454 112.649 123.239 112.686 123.028 112.66C122.817 112.634 122.619 112.546 122.458 112.407C122.297 112.268 122.181 112.084 122.125 111.879L112.887 78.1956L86.8671 130.197C86.7713 130.372 86.6315 130.519 86.4615 130.623C86.2916 130.727 86.0974 130.785 85.8981 130.791C85.6972 130.789 85.5008 130.732 85.3312 130.624C85.1616 130.516 85.0256 130.363 84.9386 130.182L75.1127 109.745L56.8648 137.213C56.7669 137.361 56.6338 137.482 56.4775 137.565C56.3212 137.649 56.1466 137.693 55.9693 137.693V137.693ZM27.3644 121.689C27.0796 121.689 26.8065 121.576 26.6051 121.374C26.4037 121.173 26.2906 120.9 26.2905 120.615V56.6453C26.2905 56.3605 26.4037 56.0874 26.6051 55.886C26.8065 55.6846 27.0796 55.5715 27.3644 55.5715C27.6492 55.5715 27.9224 55.6846 28.1237 55.886C28.3251 56.0874 28.4383 56.3605 28.4383 56.6453V120.615C28.4383 120.9 28.3251 121.173 28.1237 121.374C27.9224 121.576 27.6492 121.689 27.3644 121.689V121.689ZM173.055 167.547H173.039L72.5865 166.132C72.3017 166.128 72.0301 166.011 71.8316 165.806C71.6331 165.602 71.5238 165.328 71.5278 165.043C71.536 164.759 71.6543 164.49 71.8576 164.292C72.061 164.095 72.3333 163.984 72.6169 163.984L173.069 165.399C173.353 165.403 173.623 165.519 173.822 165.722C174.02 165.924 174.13 166.197 174.129 166.48C174.127 166.764 174.013 167.035 173.811 167.235C173.61 167.435 173.338 167.547 173.055 167.547V167.547Z"/>
</mask>
<path d="M214.965 150.748H22.7077C22.4228 150.748 22.1497 150.635 21.9483 150.434C21.7469 150.232 21.6338 149.959 21.6338 149.675C21.6338 149.39 21.7469 149.117 21.9483 148.915C22.1497 148.714 22.4228 148.601 22.7077 148.601H214.965C215.25 148.601 215.523 148.714 215.724 148.915C215.926 149.117 216.039 149.39 216.039 149.675C216.039 149.959 215.926 150.232 215.724 150.434C215.523 150.635 215.25 150.748 214.965 150.748ZM55.9693 137.693C55.7752 137.692 55.5847 137.64 55.4182 137.54C55.2517 137.44 55.1154 137.297 55.0237 137.126C54.9321 136.955 54.8885 136.762 54.8977 136.568C54.9068 136.374 54.9684 136.186 55.0758 136.025L74.3682 106.984C74.4747 106.828 74.6199 106.701 74.7896 106.618C74.9593 106.534 75.1478 106.496 75.3367 106.507C75.526 106.52 75.7084 106.583 75.8654 106.689C76.0225 106.796 76.1485 106.942 76.2307 107.113L85.9259 127.279L112.221 74.7275C112.317 74.5317 112.47 74.37 112.661 74.2647C112.852 74.1594 113.07 74.1156 113.287 74.1392C113.503 74.1605 113.708 74.2468 113.874 74.3869C114.04 74.5269 114.16 74.7141 114.217 74.9236L123.508 108.8L131.539 94.602C131.638 94.4281 131.782 94.2851 131.958 94.1891C132.133 94.093 132.331 94.0477 132.531 94.0582C132.73 94.0687 132.923 94.1347 133.087 94.2486C133.251 94.3625 133.38 94.52 133.459 94.7032L144.35 119.807L152.085 98.09C152.153 97.8997 152.273 97.7323 152.431 97.6072C152.59 97.482 152.781 97.4042 152.981 97.3826C153.182 97.3594 153.386 97.394 153.568 97.4826C153.75 97.5711 153.902 97.7098 154.008 97.8823L161.644 110.144L188.725 56.164C188.819 55.9767 188.966 55.8209 189.147 55.7159C189.328 55.6109 189.536 55.5612 189.746 55.573C189.955 55.5848 190.156 55.6575 190.324 55.7821C190.493 55.9068 190.621 56.078 190.693 56.2746L195.853 70.301L214.017 36.2413C214.084 36.1168 214.174 36.0067 214.283 35.9171C214.392 35.8276 214.517 35.7604 214.652 35.7193C214.787 35.6783 214.929 35.6642 215.069 35.6779C215.21 35.6917 215.346 35.7329 215.47 35.7993C215.595 35.8656 215.705 35.9559 215.795 36.0648C215.884 36.1738 215.951 36.2993 215.992 36.4342C216.033 36.5691 216.047 36.7108 216.034 36.8512C216.02 36.9916 215.979 37.1278 215.912 37.2523L196.62 73.4266C196.522 73.6094 196.374 73.7601 196.193 73.8605C196.012 73.9608 195.805 74.0067 195.599 73.9924C195.392 73.9782 195.194 73.9045 195.028 73.7802C194.862 73.6559 194.736 73.4863 194.665 73.2919L189.533 59.3431L162.705 112.818C162.619 112.989 162.49 113.134 162.33 113.238C162.17 113.342 161.985 113.401 161.794 113.41C161.604 113.416 161.416 113.373 161.247 113.284C161.079 113.196 160.936 113.065 160.834 112.905L153.362 100.907L145.46 123.092C145.387 123.295 145.256 123.472 145.082 123.599C144.908 123.726 144.699 123.798 144.484 123.805C144.269 123.812 144.056 123.755 143.874 123.639C143.692 123.524 143.549 123.357 143.463 123.159L132.347 97.5362L124.095 112.123C123.991 112.308 123.833 112.458 123.643 112.554C123.454 112.649 123.239 112.686 123.028 112.66C122.817 112.634 122.619 112.546 122.458 112.407C122.297 112.268 122.181 112.084 122.125 111.879L112.887 78.1956L86.8671 130.197C86.7713 130.372 86.6315 130.519 86.4615 130.623C86.2916 130.727 86.0974 130.785 85.8981 130.791C85.6972 130.789 85.5008 130.732 85.3312 130.624C85.1616 130.516 85.0256 130.363 84.9386 130.182L75.1127 109.745L56.8648 137.213C56.7669 137.361 56.6338 137.482 56.4775 137.565C56.3212 137.649 56.1466 137.693 55.9693 137.693V137.693ZM27.3644 121.689C27.0796 121.689 26.8065 121.576 26.6051 121.374C26.4037 121.173 26.2906 120.9 26.2905 120.615V56.6453C26.2905 56.3605 26.4037 56.0874 26.6051 55.886C26.8065 55.6846 27.0796 55.5715 27.3644 55.5715C27.6492 55.5715 27.9224 55.6846 28.1237 55.886C28.3251 56.0874 28.4383 56.3605 28.4383 56.6453V120.615C28.4383 120.9 28.3251 121.173 28.1237 121.374C27.9224 121.576 27.6492 121.689 27.3644 121.689V121.689ZM173.055 167.547H173.039L72.5865 166.132C72.3017 166.128 72.0301 166.011 71.8316 165.806C71.6331 165.602 71.5238 165.328 71.5278 165.043C71.536 164.759 71.6543 164.49 71.8576 164.292C72.061 164.095 72.3333 163.984 72.6169 163.984L173.069 165.399C173.353 165.403 173.623 165.519 173.822 165.722C174.02 165.924 174.13 166.197 174.129 166.48C174.127 166.764 174.013 167.035 173.811 167.235C173.61 167.435 173.338 167.547 173.055 167.547V167.547Z" fill="#270949" stroke="#270949" stroke-width="2" mask="url(#path-6-inside-1)"/>
</svg>
